<?xml version="1.0" encoding="UTF-8" standalone="no"?> <svg xmlns="http://www.w3.org/2000/svg" version="1.0" width="1772.000000pt" height="1772.000000pt" viewBox="0 0 1772.000000 1772.000000" preserveAspectRatio="xMidYMid meet"><g transform="translate(0.000000,1772.000000) scale(0.100000,-0.100000)" fill="#000000" stroke="none"><path d="M2088 10171 c-114 -37 -213 -137 -249 -252 -18 -58 -19 -114 -19 -1234 0 -926 -3 -1175 -12 -1182 -7 -6 -30 -13 -51 -17 -28 -5 -43 -15 -57 -39 -18 -29 -20 -51 -20 -235 0 -215 6 -249 49 -272 66 -35 167 35 146 101 -8 24 -44 25 -51 2 -12 -38 -22 -48 -50 -48 l-29 0 0 215 0 214 41 8 c23 5 52 20 65 34 l24 26 5 1206 5 1207 29 53 c34 60 85 111 148 144 37 20 58 23 148 23 98 0 109 -2 159 -30 61 -34 114 -91 145 -155 21 -45 21 -47 26 -1247 l5 -1201 24 -26 c15 -16 41 -29 63 -33 22 -3 43 -13 48 -24 13 -24 13 -375 0 -400 -12 -21 -50 -25 -68 -7 -8 8 -12 62 -12 176 l0 164 -29 29 -29 29 -245 0 c-135 0 -252 3 -261 6 -14 6 -16 74 -16 673 0 554 -2 670 -14 686 -12 16 -16 17 -30 6 -14 -12 -16 -79 -16 -676 0 -457 3 -672 11 -694 6 -17 21 -37 33 -44 14 -8 101 -14 276 -17 l255 -5 5 -173 5 -174 33 -29 c41 -37 89 -39 129 -5 l28 24 0 232 0 232 -28 24 c-15 13 -40 24 -56 24 -15 0 -32 5 -39 12 -9 9 -12 285 -12 1180 0 807 -3 1183 -11 1218 -14 67 -81 165 -144 212 -96 73 -239 96 -357 59z"></path><path d="M3360 10181 c-86 -28 -168 -98 -211 -181 l-24 -45 0 -615 0 -615 25 0 25 0 5 610 c5 605 5 610 27 651 29 54 101 117 151 132 130 39 265 -18 323 -136 l24 -47 0 -1140 0 -1140 -28 -60 c-36 -77 -110 -147 -185 -175 -75 -29 -196 -25 -260 9 -66 34 -128 96 -159 160 l-28 56 -3 1121 c-2 1021 -4 1123 -18 1128 -46 18 -45 51 -42 -1133 l3 -1116 23 -58 c34 -82 123 -176 204 -213 56 -26 74 -29 163 -29 88 0 107 3 157 27 76 35 148 104 189 181 l34 62 3 1159 c3 1312 9 1214 -79 1310 -61 67 -128 98 -224 102 -38 2 -81 0 -95 -5z"></path><path d="M4387 10180 c-97 -25 -208 -115 -255 -206 -42 -83 -43 -103 -40 -1394 l3 -1235 25 0 25 0 5 1270 5 1270 28 56 c31 64 93 126 159 160 66 34 184 38 262 9 76 -29 147 -94 183 -169 l28 -56 3 -440 c2 -321 0 -452 -9 -483 -16 -57 -95 -144 -152 -167 -24 -10 -69 -17 -104 -17 -104 -1 -189 52 -244 152 -11 20 -15 114 -19 460 l-5 435 -25 0 -25 0 0 -435 c0 -425 0 -436 22 -482 26 -57 95 -128 155 -160 36 -19 58 -23 138 -23 79 0 103 4 142 23 56 28 122 91 151 146 22 40 22 47 22 531 l0 490 -34 62 c-41 77 -114 146 -187 180 -62 28 -190 40 -257 23z"></path><path d="M5580 10181 c-86 -28 -168 -98 -211 -181 l-24 -45 0 -615 0 -615 25 0 25 0 5 610 c5 605 5 610 27 651 29 54 101 117 151 132 130 39 265 -18 323 -136 l24 -47 0 -1140 0 -1140 -28 -60 c-36 -77 -110 -147 -185 -175 -75 -29 -196 -25 -260 9 -66 34 -128 96 -159 160 l-28 56 -3 1121 c-2 1021 -4 1123 -18 1128 -46 18 -45 51 -42 -1133 l3 -1116 23 -58 c34 -82 123 -176 204 -213 56 -26 74 -29 163 -29 88 0 107 3 157 27 76 35 148 104 189 181 l34 62 3 1159 c3 1312 9 1214 -79 1310 -61 67 -128 98 -224 102 -38 2 -81 0 -95 -5z"></path><path d="M6359 10175 c-15 -8 -32 -29 -38 -46 -16 -45 -16 -2683 0 -2728 12 -33 52 -61 89 -61 34 0 76 27 89 57 8 21 11 366 9 1333 l-3 1305 -22 3 c-13 2 -24 2 -25 0 -2 -2 -5 -595 -8 -1318 l-5 -1315 -29 -3 c-16 -2 -32 2 -37 10 -5 7 -9 617 -9 1354 0 1107 2 1343 13 1353 9 7 124 12 358 13 l344 3 0 25 0 25 -350 2 c-289 2 -355 0 -376 -12z"></path><path d="M7306 10175 c-3 -9 -6 -636 -6 -1393 0 -1085 3 -1382 13 -1402 27 -54 107 -52 132 3 8 17 147 568 309 1222 416 1680 375 1525 397 1525 18 0 19 -36 19 -1349 0 -742 -3 -1356 -6 -1365 -9 -23 -61 -21 -74 3 -6 13 -10 246 -10 686 l0 666 -22 -3 -23 -3 0 -688 0 -689 28 -24 c49 -42 124 -27 152 31 13 29 15 185 15 1380 0 1162 -2 1350 -15 1374 -15 31 -33 41 -70 41 -58 0 -44 50 -405 -1408 -187 -756 -340 -1375 -340 -1378 0 -2 -9 -4 -20 -4 -20 0 -20 8 -22 1393 l-3 1392 -21 3 c-13 2 -24 -4 -28 -13z"></path><path d="M8847 10179 c-107 -25 -225 -129 -269 -236 -23 -58 -23 -62 -26 -529 -2 -297 1 -480 7 -497 21 -56 46 -62 276 -67 210 -5 210 -5 213 -28 7 -49 -5 -52 -227 -52 -225 0 -237 -3 -260 -58 -9 -21 -11 -165 -9 -548 3 -518 3 -519 26 -577 33 -82 123 -176 204 -213 l63 -29 245 0 245 0 0 25 0 25 -240 5 c-219 5 -244 7 -287 27 -66 30 -133 96 -165 162 l-28 56 -3 519 c-2 381 0 522 9 532 9 11 54 14 221 14 208 0 209 0 233 24 43 43 45 99 6 147 -19 24 -22 24 -234 27 -166 2 -218 6 -227 17 -8 9 -10 147 -8 487 3 460 4 474 25 520 30 66 96 133 162 165 55 28 59 28 296 33 l240 5 0 25 0 25 -225 2 c-124 0 -242 -3 -263 -8z"></path><path d="M10359 10175 c-15 -8 -32 -29 -38 -46 -16 -45 -16 -2683 0 -2728 12 -33 52 -61 89 -61 34 0 76 27 89 57 8 21 11 366 9 1333 l-3 1305 -22 3 c-13 2 -24 2 -25 0 -2 -2 -5 -595 -8 -1318 l-5 -1315 -29 -3 c-16 -2 -32 2 -37 10 -5 7 -9 617 -9 1354 0 1107 2 1343 13 1353 9 7 124 12 358 13 l344 3 0 25 0 25 -350 2 c-289 2 -355 0 -376 -12z"></path><path d="M11680 10181 c-86 -28 -168 -98 -211 -181 l-24 -45 0 -615 0 -615 25 0 25 0 5 610 c5 605 5 610 27 651 29 54 101 117 151 132 130 39 265 -18 323 -136 l24 -47 0 -1140 0 -1140 -28 -60 c-36 -77 -110 -147 -185 -175 -75 -29 -196 -25 -260 9 -66 34 -128 96 -159 160 l-28 56 -3 1121 c-2 1021 -4 1123 -18 1128 -46 18 -45 51 -42 -1133 l3 -1116 23 -58 c34 -82 123 -176 204 -213 56 -26 74 -29 163 -29 88 0 107 3 157 27 76 35 148 104 189 181 l34 62 3 1159 c3 1312 9 1214 -79 1310 -61 67 -128 98 -224 102 -38 2 -81 0 -95 -5z"></path><path d="M12687 10179 c-99 -23 -200 -107 -249 -207 l-33 -67 0 -1140 0 -1140 27 -57 c37 -80 107 -152 187 -191 l66 -32 240 0 240 0 0 25 0 25 -235 5 c-225 5 -237 6 -285 30 -67 33 -131 99 -163 168 l-27 57 0 1105 c0 1252 -6 1162 82 1260 65 73 128 102 228 108 101 5 172 -19 244 -84 58 -52 87 -108 103 -195 11 -65 21 -81 45 -72 20 8 16 94 -8 158 -68 183 -269 289 -462 244z"></path><path d="M13455 10178 c-67 -39 -67 -146 1 -177 15 -7 89 -11 193 -11 129 0 171 -3 180 -13 8 -10 12 -376 13 -1323 3 -1301 3 -1309 23 -1309 20 0 20 8 23 1322 l2 1322 -24 28 -24 28 -183 5 c-159 4 -183 7 -193 23 -8 12 -8 22 0 35 10 16 44 17 395 22 l384 5 0 25 0 25 -385 2 c-276 2 -391 -1 -405 -9z"></path><path d="M14516 10175 c-3 -9 -6 -636 -6 -1393 0 -1085 3 -1382 13 -1402 27 -54 107 -52 132 3 8 17 147 568 309 1222 416 1680 375 1525 397 1525 18 0 19 -36 19 -1349 0 -742 -3 -1356 -6 -1365 -9 -23 -61 -21 -74 3 -6 13 -10 246 -10 686 l0 666 -22 -3 -23 -3 0 -688 0 -689 28 -24 c49 -42 124 -27 152 31 13 29 15 185 15 1380 0 1162 -2 1350 -15 1374 -15 31 -33 41 -70 41 -58 0 -44 50 -405 -1408 -187 -756 -340 -1375 -340 -1378 0 -2 -9 -4 -20 -4 -20 0 -20 8 -22 1393 l-3 1392 -21 3 c-13 2 -24 -4 -28 -13z"></path><path d="M15809 10176 c-14 -9 -31 -28 -38 -43 -8 -21 -11 -341 -9 -1235 l3 -1206 24 -26 c13 -14 42 -29 65 -34 l41 -8 0 -109 0 -110 -35 0 c-34 0 -35 1 -38 45 -4 77 -10 92 -35 88 -19 -3 -22 -10 -25 -57 -4 -66 12 -107 49 -126 34 -18 60 -19 94 -3 43 19 55 56 55 163 0 134 -15 158 -112 179 l-28 6 0 1210 c0 1199 0 1209 20 1220 14 8 26 8 40 0 20 -11 20 -21 20 -994 0 -862 2 -985 15 -996 12 -10 18 -10 30 0 14 11 15 129 13 1006 l-3 993 -21 21 c-27 27 -91 35 -125 16z"></path></g></svg> 