<?xml version="1.0" encoding="UTF-8" standalone="no"?> <svg xmlns="http://www.w3.org/2000/svg" version="1.0" width="1772.000000pt" height="1772.000000pt" viewBox="0 0 1772.000000 1772.000000" preserveAspectRatio="xMidYMid meet"><g transform="translate(0.000000,1772.000000) scale(0.100000,-0.100000)" fill="#000000" stroke="none"><path d="M6047 10180 c-97 -25 -209 -115 -255 -206 -42 -82 -42 -97 -42 -1352 0 -1179 1 -1208 20 -1239 23 -38 74 -52 121 -33 61 25 59 7 59 708 0 483 3 641 12 650 8 8 64 12 185 12 l173 0 0 25 0 25 -186 0 -186 0 -29 -29 -29 -29 0 -645 c0 -696 2 -673 -52 -665 l-23 3 0 1245 0 1245 24 50 c32 63 93 125 156 155 72 35 190 39 266 11 79 -30 141 -88 181 -169 l33 -67 5 -1265 c5 -1257 5 -1265 25 -1265 20 0 20 7 20 1285 l0 1285 -34 62 c-41 77 -114 146 -187 180 -62 28 -190 40 -257 23z"></path><path d="M6911 10176 c-53 -29 -50 39 -51 -1409 0 -1465 -3 -1389 55 -1415 55 -25 105 -11 130 38 13 25 15 117 15 663 0 479 3 636 12 645 18 18 491 17 507 -1 8 -10 12 -209 13 -683 l3 -669 25 0 25 0 0 688 0 689 -28 24 -28 24 -260 0 c-274 0 -293 -3 -316 -48 -4 -9 -10 -309 -13 -667 l-5 -650 -23 -3 c-55 -8 -52 -91 -52 1363 0 1454 -3 1371 52 1363 l23 -3 5 -600 c4 -474 8 -605 18 -623 26 -46 64 -52 309 -52 249 0 284 7 310 60 10 19 12 165 10 650 l-2 625 -25 0 -25 0 -3 -624 c-1 -441 -5 -628 -13 -638 -16 -18 -489 -19 -507 -1 -9 9 -12 156 -12 600 0 630 0 631 -49 658 -27 14 -71 12 -100 -4z"></path><path d="M8023 10180 c-56 -23 -53 48 -53 -1417 0 -1319 1 -1349 20 -1380 33 -55 131 -54 163 1 9 16 13 185 17 656 6 709 1 668 78 745 53 52 87 68 167 73 88 5 157 -21 211 -80 72 -80 68 -40 74 -773 5 -652 5 -660 25 -660 20 0 20 8 23 660 3 766 8 721 -92 821 -78 77 -134 98 -245 92 -121 -7 -216 -72 -271 -183 l-25 -50 -3 -629 c-2 -449 -6 -634 -14 -643 -6 -8 -23 -13 -37 -11 l-26 3 -3 1357 c-2 1349 -2 1357 18 1368 14 8 26 8 40 0 20 -11 20 -21 20 -568 0 -631 -4 -602 74 -602 29 0 48 6 58 18 20 23 508 1172 508 1195 0 13 -6 17 -21 15 -19 -3 -61 -94 -274 -588 -175 -408 -257 -586 -268 -588 -16 -3 -17 38 -17 547 0 405 -3 557 -12 576 -21 46 -82 66 -135 45z"></path><path d="M9377 10179 c-107 -25 -225 -129 -269 -236 -23 -58 -23 -62 -26 -529 -2 -297 1 -480 7 -497 21 -56 46 -62 276 -67 210 -5 210 -5 213 -28 7 -49 -5 -52 -227 -52 -225 0 -237 -3 -260 -58 -9 -21 -11 -165 -9 -548 3 -518 3 -519 26 -577 33 -82 123 -176 204 -213 l63 -29 245 0 245 0 0 25 0 25 -240 5 c-219 5 -244 7 -287 27 -66 30 -133 96 -165 162 l-28 56 -3 519 c-2 381 0 522 9 532 9 11 54 14 221 14 208 0 209 0 233 24 43 43 45 99 6 147 -19 24 -22 24 -234 27 -166 2 -218 6 -227 17 -8 9 -10 147 -8 487 3 460 4 474 25 520 30 66 96 133 162 165 55 28 59 28 296 33 l240 5 0 25 0 25 -225 2 c-124 0 -242 -3 -263 -8z"></path><path d="M10125 10178 c-67 -39 -67 -146 1 -177 15 -7 89 -11 193 -11 129 0 171 -3 180 -13 8 -10 12 -376 13 -1323 3 -1301 3 -1309 23 -1309 20 0 20 8 23 1322 l2 1322 -24 28 -24 28 -183 5 c-159 4 -183 7 -193 23 -8 12 -8 22 0 35 10 16 44 17 395 22 l384 5 0 25 0 25 -385 2 c-276 2 -391 -1 -405 -9z"></path><path d="M11477 10180 c-97 -25 -209 -115 -255 -206 -42 -82 -42 -97 -42 -1352 0 -1179 1 -1208 20 -1239 23 -38 74 -52 121 -33 61 25 59 7 59 708 0 483 3 641 12 650 8 8 64 12 185 12 l173 0 0 25 0 25 -186 0 -186 0 -29 -29 -29 -29 0 -645 c0 -696 2 -673 -52 -665 l-23 3 0 1245 0 1245 24 50 c32 63 93 125 156 155 72 35 190 39 266 11 79 -30 141 -88 181 -169 l33 -67 5 -1265 c5 -1257 5 -1265 25 -1265 20 0 20 7 20 1285 l0 1285 -34 62 c-41 77 -114 146 -187 180 -62 28 -190 40 -257 23z"></path></g></svg> 