<?xml version="1.0" encoding="UTF-8" standalone="no"?> <svg xmlns="http://www.w3.org/2000/svg" version="1.0" width="1772.000000pt" height="1772.000000pt" viewBox="0 0 1772.000000 1772.000000" preserveAspectRatio="xMidYMid meet"><g transform="translate(0.000000,1772.000000) scale(0.100000,-0.100000)" fill="#000000" stroke="none"><path d="M5958 10171 c-114 -37 -213 -137 -249 -252 -18 -58 -19 -114 -19 -1234 0 -926 -3 -1175 -12 -1182 -7 -6 -30 -13 -51 -17 -28 -5 -43 -15 -57 -39 -18 -29 -20 -51 -20 -235 0 -215 6 -249 49 -272 66 -35 167 35 146 101 -8 24 -44 25 -51 2 -12 -38 -22 -48 -50 -48 l-29 0 0 215 0 214 41 8 c23 5 52 20 65 34 l24 26 5 1206 5 1207 29 53 c34 60 85 111 148 144 37 20 58 23 148 23 98 0 109 -2 159 -30 61 -34 114 -91 145 -155 21 -45 21 -47 26 -1247 l5 -1201 24 -26 c15 -16 41 -29 63 -33 22 -3 43 -13 48 -24 13 -24 13 -375 0 -400 -12 -21 -50 -25 -68 -7 -8 8 -12 62 -12 176 l0 164 -29 29 -29 29 -245 0 c-135 0 -252 3 -261 6 -14 6 -16 74 -16 673 0 554 -2 670 -14 686 -12 16 -16 17 -30 6 -14 -12 -16 -79 -16 -676 0 -457 3 -672 11 -694 6 -17 21 -37 33 -44 14 -8 101 -14 276 -17 l255 -5 5 -173 5 -174 33 -29 c41 -37 89 -39 129 -5 l28 24 0 232 0 232 -28 24 c-15 13 -40 24 -56 24 -15 0 -32 5 -39 12 -9 9 -12 285 -12 1180 0 807 -3 1183 -11 1218 -14 67 -81 165 -144 212 -96 73 -239 96 -357 59z"></path><path d="M7147 10179 c-107 -25 -225 -129 -269 -236 -23 -58 -23 -62 -26 -529 -2 -297 1 -480 7 -497 21 -56 46 -62 276 -67 210 -5 210 -5 213 -28 7 -49 -5 -52 -227 -52 -225 0 -237 -3 -260 -58 -9 -21 -11 -165 -9 -548 3 -518 3 -519 26 -577 33 -82 123 -176 204 -213 l63 -29 245 0 245 0 0 25 0 25 -240 5 c-219 5 -244 7 -287 27 -66 30 -133 96 -165 162 l-28 56 -3 519 c-2 381 0 522 9 532 9 11 54 14 221 14 208 0 209 0 233 24 43 43 45 99 6 147 -19 24 -22 24 -234 27 -166 2 -218 6 -227 17 -8 9 -10 147 -8 487 3 460 4 474 25 520 30 66 96 133 162 165 55 28 59 28 296 33 l240 5 0 25 0 25 -225 2 c-124 0 -242 -3 -263 -8z"></path><path d="M7895 10178 c-67 -39 -67 -146 1 -177 15 -7 89 -11 193 -11 129 0 171 -3 180 -13 8 -10 12 -376 13 -1323 3 -1301 3 -1309 23 -1309 20 0 20 8 23 1322 l2 1322 -24 28 -24 28 -183 5 c-159 4 -183 7 -193 23 -8 12 -8 22 0 35 10 16 44 17 395 22 l384 5 0 25 0 25 -385 2 c-276 2 -391 -1 -405 -9z"></path><path d="M9247 10180 c-97 -25 -209 -115 -255 -206 -42 -82 -42 -97 -42 -1352 0 -1179 1 -1208 20 -1239 23 -38 74 -52 121 -33 61 25 59 7 59 708 0 483 3 641 12 650 8 8 64 12 185 12 l173 0 0 25 0 25 -186 0 -186 0 -29 -29 -29 -29 0 -645 c0 -696 2 -673 -52 -665 l-23 3 0 1245 0 1245 24 50 c32 63 93 125 156 155 72 35 190 39 266 11 79 -30 141 -88 181 -169 l33 -67 5 -1265 c5 -1257 5 -1265 25 -1265 20 0 20 7 20 1285 l0 1285 -34 62 c-41 77 -114 146 -187 180 -62 28 -190 40 -257 23z"></path><path d="M10497 10180 c-110 -28 -209 -110 -260 -218 l-32 -67 -5 -1245 -5 -1245 -32 -3 c-18 -2 -34 -2 -35 0 -1 2 -4 97 -7 213 -6 195 -7 210 -25 213 -10 2 -22 -2 -27 -10 -13 -20 -11 -379 2 -417 12 -33 52 -61 89 -61 29 0 76 26 86 47 5 10 11 578 14 1263 l5 1245 23 48 c31 61 98 128 159 159 42 20 66 23 184 26 108 3 137 1 147 -11 9 -11 13 -342 14 -1393 3 -1371 3 -1379 23 -1379 20 0 20 8 23 1401 l2 1401 -21 19 c-18 16 -39 19 -153 21 -72 1 -148 -2 -169 -7z"></path><path d="M11176 10175 c-3 -9 -6 -636 -6 -1393 0 -1085 3 -1382 13 -1402 27 -54 107 -52 132 3 8 17 147 568 309 1222 416 1680 375 1525 397 1525 18 0 19 -36 19 -1349 0 -742 -3 -1356 -6 -1365 -9 -23 -61 -21 -74 3 -6 13 -10 246 -10 686 l0 666 -22 -3 -23 -3 0 -688 0 -689 28 -24 c49 -42 124 -27 152 31 13 29 15 185 15 1380 0 1162 -2 1350 -15 1374 -15 31 -33 41 -70 41 -58 0 -44 50 -405 -1408 -187 -756 -340 -1375 -340 -1378 0 -2 -9 -4 -20 -4 -20 0 -20 8 -22 1393 l-3 1392 -21 3 c-13 2 -24 -4 -28 -13z"></path></g></svg> 