<?xml version="1.0" encoding="UTF-8" standalone="no"?> <svg xmlns="http://www.w3.org/2000/svg" version="1.0" width="1772.000000pt" height="1772.000000pt" viewBox="0 0 1772.000000 1772.000000" preserveAspectRatio="xMidYMid meet"><metadata> Created by potrace 1.16, written by Peter Selinger 2001-2019 </metadata><g transform="translate(0.000000,1772.000000) scale(0.100000,-0.100000)" fill="#000000" stroke="none"><path d="M8024 10189 c-4 -6 -118 -271 -255 -588 -160 -372 -253 -577 -263 -579 -14 -3 -16 55 -16 556 l0 559 -26 27 c-37 36 -114 37 -149 1 l-25 -24 0 -1374 c0 -1294 1 -1376 18 -1396 18 -23 71 -39 109 -33 12 2 33 15 47 29 l25 25 3 632 c3 616 4 632 24 676 38 83 119 144 207 156 101 14 218 -53 263 -150 l24 -51 0 -652 c0 -626 1 -653 19 -662 13 -7 23 -7 35 2 15 11 16 66 14 677 -3 657 -3 666 -25 712 -30 66 -96 133 -162 165 -47 23 -69 28 -136 28 -71 0 -88 -4 -147 -33 -78 -38 -129 -94 -159 -172 -18 -48 -19 -82 -19 -669 0 -550 -2 -621 -16 -635 -18 -19 -20 -19 -45 -6 -19 11 -19 36 -19 1353 0 1031 3 1346 12 1355 18 18 46 14 58 -7 6 -13 10 -210 10 -570 0 -538 0 -551 20 -571 25 -25 80 -26 108 -2 20 17 522 1176 522 1205 0 24 -43 36 -56 16z"></path><path d="M5462 10170 c-73 -26 -144 -81 -185 -143 -72 -108 -67 -13 -67 -1372 0 -1099 -2 -1225 -16 -1239 -18 -18 -23 -19 -44 -6 -12 8 -16 45 -18 215 l-3 205 -30 0 -29 0 0 -219 0 -218 25 -26 c42 -41 108 -42 149 0 l26 25 2 1242 3 1241 26 56 c34 73 96 134 168 167 47 22 74 27 173 30 85 3 122 1 133 -8 13 -11 15 -177 15 -1391 0 -1310 1 -1379 18 -1388 11 -6 24 -6 35 0 16 9 17 95 17 1405 l0 1395 -25 24 c-23 24 -28 25 -172 25 -120 -1 -158 -4 -201 -20z"></path><path d="M6520 10173 c-29 -11 -66 -38 -106 -77 -99 -99 -95 -61 -92 -771 l3 -610 25 0 25 0 5 605 c6 676 2 645 78 723 129 134 334 102 417 -66 l25 -53 -2 -1139 -3 -1140 -28 -57 c-33 -68 -90 -121 -166 -156 -74 -35 -183 -37 -253 -5 -70 32 -141 103 -174 176 l-29 62 -3 1118 -3 1118 -27 -3 -27 -3 0 -1135 0 -1135 29 -62 c34 -73 123 -164 190 -194 58 -25 153 -36 233 -27 125 14 256 115 305 236 l23 57 0 1160 0 1160 -28 57 c-34 70 -110 140 -174 162 -59 20 -183 20 -243 -1z"></path><path d="M8663 10176 c-92 -30 -185 -115 -230 -211 l-28 -60 -3 -1256 c-2 -1188 -1 -1258 15 -1278 19 -23 72 -39 110 -33 12 2 33 15 47 29 l26 26 0 646 c0 490 3 650 12 659 8 8 62 12 179 12 178 0 198 5 184 50 -6 19 -14 20 -191 20 l-186 0 -29 -29 -29 -29 0 -646 c0 -573 -2 -646 -16 -660 -19 -19 -25 -20 -47 -3 -16 11 -17 92 -15 1237 l3 1225 33 67 c59 119 161 182 297 182 67 0 89 -4 137 -27 71 -35 140 -110 167 -183 21 -54 21 -68 21 -1309 0 -1213 1 -1255 19 -1264 13 -7 23 -7 35 2 15 11 16 109 14 1282 l-3 1270 -23 57 c-31 76 -105 156 -184 199 -59 31 -70 34 -168 36 -68 2 -120 -2 -147 -11z"></path><path d="M9509 10164 l-24 -26 -3 -1226 c-3 -1351 -5 -1294 59 -1394 65 -100 163 -163 282 -178 39 -5 140 -10 223 -10 149 0 152 0 158 -22 3 -13 6 -92 6 -176 0 -149 1 -154 25 -177 19 -20 34 -25 74 -25 43 0 53 4 75 31 l26 31 0 220 0 220 -29 29 c-17 17 -40 29 -55 29 -60 0 -56 -96 -56 1366 l0 1334 -30 0 -30 0 0 -1354 0 -1354 31 -26 c17 -14 40 -26 52 -26 47 0 48 -4 45 -221 l-3 -204 -24 -3 c-13 -2 -28 2 -32 10 -5 7 -9 86 -9 174 0 161 0 161 -26 188 -27 26 -28 26 -183 26 -86 0 -187 5 -225 10 -122 18 -211 85 -265 199 l-26 56 -3 1205 c-1 663 0 1215 3 1227 6 26 41 39 60 23 13 -11 15 -107 17 -639 l3 -626 24 -3 c13 -2 28 2 32 10 5 7 9 291 9 631 0 532 -2 622 -15 647 -20 38 -43 50 -98 50 -34 0 -49 -6 -68 -26z"></path><path d="M10610 8785 c0 -1392 0 -1405 20 -1425 28 -28 93 -30 119 -5 7 7 167 633 355 1391 199 804 347 1379 354 1382 9 3 12 -290 12 -1356 l0 -1361 -20 -6 c-51 -16 -50 -32 -52 694 l-3 676 -25 0 -25 0 -3 -680 c-1 -374 0 -690 3 -702 8 -33 49 -55 98 -55 34 1 47 7 70 32 l27 30 0 1375 c0 1362 0 1375 -20 1395 -29 29 -105 28 -124 -2 -8 -13 -166 -637 -352 -1388 -185 -751 -341 -1369 -346 -1375 -6 -6 -12 -5 -18 5 -6 9 -10 549 -10 1398 l0 1382 -30 0 -30 0 0 -1405z"></path><path d="M12123 10176 c-92 -30 -185 -115 -230 -211 l-28 -60 -3 -466 c-3 -453 -2 -468 18 -522 26 -69 88 -135 161 -173 48 -25 65 -28 144 -28 75 0 98 4 140 24 64 31 124 92 156 155 l24 50 0 440 0 440 -24 3 c-13 2 -28 -2 -32 -10 -5 -7 -9 -200 -9 -429 l0 -415 -26 -52 c-45 -91 -130 -145 -229 -144 -106 0 -190 56 -239 161 -20 45 -21 60 -21 486 l0 440 29 62 c33 73 104 144 174 176 36 16 66 21 128 21 103 0 171 -31 242 -109 94 -103 87 13 90 -1355 1 -663 0 -1215 -3 -1227 -6 -26 -41 -39 -60 -23 -13 11 -15 103 -15 632 l0 619 -25 24 c-29 30 -74 33 -104 8 -21 -18 -521 -1297 -521 -1333 0 -19 23 -32 43 -25 7 3 125 296 263 652 138 356 256 649 263 651 8 3 11 -152 11 -602 0 -651 1 -660 51 -686 12 -7 40 -12 63 -12 33 1 47 7 69 32 l27 31 -2 1247 -3 1247 -23 57 c-31 76 -105 156 -184 199 -59 31 -70 34 -168 36 -68 2 -120 -2 -147 -11z"></path></g></svg> 